<mxfile host="65bd71144e" modified="2020-10-25T09:59:40.927Z" agent="5.0 (Macintosh; Intel Mac OS X 10_15_7) AppleWebKit/537.36 (KHTML, like Gecko) Code/1.50.1 Chrome/83.0.4103.122 Electron/9.2.1 Safari/537.36" etag="88BV2lC6pKgJ0QJvzP55" version="13.6.5">
    <diagram id="9I-thJWshJDuxypnTMfa" name="Page-1">
        <mxGraphModel dx="738" dy="489" grid="1" gridSize="10" guides="1" tooltips="1" connect="1" arrows="1" fold="1" page="1" pageScale="1" pageWidth="827" pageHeight="1169" math="0" shadow="0">
            <root>
                <mxCell id="0"/>
                <mxCell id="1" parent="0"/>
                <mxCell id="n7mIbu_Ckn_cU0Udae32-5" value="Database" style="shape=umlLifeline;perimeter=lifelinePerimeter;whiteSpace=wrap;html=1;container=1;collapsible=0;recursiveResize=0;outlineConnect=0;" parent="1" vertex="1">
                    <mxGeometry x="630" y="100" width="100" height="620" as="geometry"/>
                </mxCell>
                <mxCell id="n7mIbu_Ckn_cU0Udae32-30" value="" style="rounded=0;whiteSpace=wrap;html=1;" parent="n7mIbu_Ckn_cU0Udae32-5" vertex="1">
                    <mxGeometry x="45" y="100" width="10" height="440" as="geometry"/>
                </mxCell>
                <mxCell id="n7mIbu_Ckn_cU0Udae32-14" value="Cập nhật dữ liệu&lt;br&gt;thông tin phim" style="edgeStyle=orthogonalEdgeStyle;html=1;align=left;spacingLeft=2;endArrow=block;rounded=0;" parent="n7mIbu_Ckn_cU0Udae32-5" target="n7mIbu_Ckn_cU0Udae32-5" edge="1">
                    <mxGeometry relative="1" as="geometry">
                        <mxPoint x="50" y="320" as="sourcePoint"/>
                        <Array as="points">
                            <mxPoint x="110" y="320"/>
                            <mxPoint x="110" y="350"/>
                        </Array>
                        <mxPoint x="55" y="340" as="targetPoint"/>
                    </mxGeometry>
                </mxCell>
                <mxCell id="n7mIbu_Ckn_cU0Udae32-4" value="Hệ thống" style="shape=umlLifeline;perimeter=lifelinePerimeter;whiteSpace=wrap;html=1;container=1;collapsible=0;recursiveResize=0;outlineConnect=0;" parent="1" vertex="1">
                    <mxGeometry x="350" y="100" width="100" height="620" as="geometry"/>
                </mxCell>
                <mxCell id="n7mIbu_Ckn_cU0Udae32-7" value="Gửi yêu cầu danh sách các phim đang được quản lí" style="html=1;verticalAlign=bottom;endArrow=block;" parent="n7mIbu_Ckn_cU0Udae32-4" target="n7mIbu_Ckn_cU0Udae32-5" edge="1">
                    <mxGeometry width="80" relative="1" as="geometry">
                        <mxPoint x="50" y="120" as="sourcePoint"/>
                        <mxPoint x="260" y="120" as="targetPoint"/>
                    </mxGeometry>
                </mxCell>
                <mxCell id="n7mIbu_Ckn_cU0Udae32-11" value="Gửi yêu cầu cập nhật dữ liệu thông tin phim" style="html=1;verticalAlign=bottom;endArrow=block;" parent="n7mIbu_Ckn_cU0Udae32-4" target="n7mIbu_Ckn_cU0Udae32-5" edge="1">
                    <mxGeometry width="80" relative="1" as="geometry">
                        <mxPoint x="50" y="280" as="sourcePoint"/>
                        <mxPoint x="130" y="280" as="targetPoint"/>
                    </mxGeometry>
                </mxCell>
                <mxCell id="n7mIbu_Ckn_cU0Udae32-29" value="" style="rounded=0;whiteSpace=wrap;html=1;" parent="n7mIbu_Ckn_cU0Udae32-4" vertex="1">
                    <mxGeometry x="45" y="70" width="10" height="510" as="geometry"/>
                </mxCell>
                <mxCell id="n7mIbu_Ckn_cU0Udae32-1" value="" style="shape=umlLifeline;participant=umlActor;perimeter=lifelinePerimeter;whiteSpace=wrap;html=1;container=1;collapsible=0;recursiveResize=0;verticalAlign=top;spacingTop=36;outlineConnect=0;" parent="1" vertex="1">
                    <mxGeometry x="110" y="100" width="20" height="620" as="geometry"/>
                </mxCell>
                <mxCell id="n7mIbu_Ckn_cU0Udae32-6" value="Gửi yêu cầu vào trang quản lí thông tin phim" style="html=1;verticalAlign=bottom;endArrow=block;" parent="n7mIbu_Ckn_cU0Udae32-1" target="n7mIbu_Ckn_cU0Udae32-4" edge="1">
                    <mxGeometry width="80" relative="1" as="geometry">
                        <mxPoint x="10" y="80" as="sourcePoint"/>
                        <mxPoint x="230" y="80" as="targetPoint"/>
                    </mxGeometry>
                </mxCell>
                <mxCell id="n7mIbu_Ckn_cU0Udae32-10" value="Chỉnh sửa thông tin phim" style="html=1;verticalAlign=bottom;endArrow=block;" parent="n7mIbu_Ckn_cU0Udae32-1" target="n7mIbu_Ckn_cU0Udae32-4" edge="1">
                    <mxGeometry width="80" relative="1" as="geometry">
                        <mxPoint x="10" y="240" as="sourcePoint"/>
                        <mxPoint x="90" y="240" as="targetPoint"/>
                    </mxGeometry>
                </mxCell>
                <mxCell id="n7mIbu_Ckn_cU0Udae32-28" value="" style="rounded=0;whiteSpace=wrap;html=1;" parent="n7mIbu_Ckn_cU0Udae32-1" vertex="1">
                    <mxGeometry x="5" y="70" width="10" height="510" as="geometry"/>
                </mxCell>
                <mxCell id="n7mIbu_Ckn_cU0Udae32-2" value="Quản lí" style="text;html=1;align=center;verticalAlign=middle;resizable=0;points=[];autosize=1;" parent="1" vertex="1">
                    <mxGeometry x="95" y="80" width="50" height="20" as="geometry"/>
                </mxCell>
                <mxCell id="n7mIbu_Ckn_cU0Udae32-8" value="Trả về danh sách các phim đang được quản lí" style="html=1;verticalAlign=bottom;endArrow=open;dashed=1;endSize=8;" parent="1" target="n7mIbu_Ckn_cU0Udae32-4" edge="1">
                    <mxGeometry relative="1" as="geometry">
                        <mxPoint x="680" y="260" as="sourcePoint"/>
                        <mxPoint x="490" y="260" as="targetPoint"/>
                    </mxGeometry>
                </mxCell>
                <mxCell id="n7mIbu_Ckn_cU0Udae32-9" value="Trả về trang quản lí thông tin phim" style="html=1;verticalAlign=bottom;endArrow=open;dashed=1;endSize=8;" parent="1" target="n7mIbu_Ckn_cU0Udae32-1" edge="1">
                    <mxGeometry relative="1" as="geometry">
                        <mxPoint x="400" y="300" as="sourcePoint"/>
                        <mxPoint x="210" y="300" as="targetPoint"/>
                    </mxGeometry>
                </mxCell>
                <mxCell id="n7mIbu_Ckn_cU0Udae32-17" value="Thông báo cập nhât thành công" style="html=1;verticalAlign=bottom;endArrow=open;dashed=1;endSize=8;" parent="1" target="n7mIbu_Ckn_cU0Udae32-1" edge="1">
                    <mxGeometry relative="1" as="geometry">
                        <mxPoint x="400" y="540" as="sourcePoint"/>
                        <mxPoint x="320" y="540" as="targetPoint"/>
                    </mxGeometry>
                </mxCell>
                <mxCell id="n7mIbu_Ckn_cU0Udae32-22" value="Cập nhật thất bại" style="html=1;verticalAlign=bottom;endArrow=open;dashed=1;endSize=8;" parent="1" target="n7mIbu_Ckn_cU0Udae32-4" edge="1">
                    <mxGeometry relative="1" as="geometry">
                        <mxPoint x="679.5" y="620" as="sourcePoint"/>
                        <mxPoint x="520" y="620" as="targetPoint"/>
                    </mxGeometry>
                </mxCell>
                <mxCell id="n7mIbu_Ckn_cU0Udae32-23" value="Cập nhật thành công" style="html=1;verticalAlign=bottom;endArrow=open;dashed=1;endSize=8;" parent="1" target="n7mIbu_Ckn_cU0Udae32-4" edge="1">
                    <mxGeometry relative="1" as="geometry">
                        <mxPoint x="680" y="500" as="sourcePoint"/>
                        <mxPoint x="600" y="500" as="targetPoint"/>
                    </mxGeometry>
                </mxCell>
                <mxCell id="n7mIbu_Ckn_cU0Udae32-24" value="Thông báo cập nhật thât bại" style="html=1;verticalAlign=bottom;endArrow=open;dashed=1;endSize=8;" parent="1" target="n7mIbu_Ckn_cU0Udae32-1" edge="1">
                    <mxGeometry relative="1" as="geometry">
                        <mxPoint x="400" y="660" as="sourcePoint"/>
                        <mxPoint x="320" y="660" as="targetPoint"/>
                    </mxGeometry>
                </mxCell>
                <mxCell id="2" value="&lt;span&gt;[Cập nhật thành công]&lt;/span&gt;" style="text;html=1;strokeColor=none;fillColor=none;align=center;verticalAlign=middle;whiteSpace=wrap;rounded=0;" vertex="1" parent="1">
                    <mxGeometry x="30" y="520" width="70" height="20" as="geometry"/>
                </mxCell>
                <mxCell id="3" value="&lt;span&gt;[Cập nhật thất bại]&lt;/span&gt;" style="text;html=1;strokeColor=none;fillColor=none;align=center;verticalAlign=middle;whiteSpace=wrap;rounded=0;" vertex="1" parent="1">
                    <mxGeometry x="33.75" y="610" width="62.5" height="20" as="geometry"/>
                </mxCell>
                <mxCell id="n7mIbu_Ckn_cU0Udae32-18" value="" style="endArrow=none;dashed=1;html=1;dashPattern=1 3;strokeWidth=2;entryX=1;entryY=0.51;entryDx=0;entryDy=0;entryPerimeter=0;exitX=0;exitY=0.503;exitDx=0;exitDy=0;exitPerimeter=0;" parent="1" source="n7mIbu_Ckn_cU0Udae32-16" target="n7mIbu_Ckn_cU0Udae32-16" edge="1">
                    <mxGeometry width="50" height="50" relative="1" as="geometry">
                        <mxPoint x="28" y="559" as="sourcePoint"/>
                        <mxPoint x="200" y="560" as="targetPoint"/>
                    </mxGeometry>
                </mxCell>
                <mxCell id="n7mIbu_Ckn_cU0Udae32-16" value="ALT" style="shape=umlFrame;whiteSpace=wrap;html=1;" parent="1" vertex="1">
                    <mxGeometry x="10" y="470" width="720" height="220" as="geometry"/>
                </mxCell>
            </root>
        </mxGraphModel>
    </diagram>
</mxfile>